<svg xmlns="http://www.w3.org/2000/svg" viewBox="0 0 15.199 20"><defs><style>.a{fill:#fff;}</style></defs><g transform="translate(-9.265)"><path class="a" d="M23.443,9.463a2.449,2.449,0,0,1-.576-2.054l.97-3.029a1.16,1.16,0,0,0-.459-1.47L22.549,2.6c-.3-.115-.674-.245-1.116-.367A1.479,1.479,0,0,1,20.274.985c0-.544-.645-.985-1.44-.985H15.018a1.332,1.332,0,0,0-1.44,1.187,2.333,2.333,0,0,1-1.269,1.749A4.967,4.967,0,0,0,9.483,7.284,4.17,4.17,0,0,0,10.038,9.4a3.089,3.089,0,0,1,.423,2.159L9.348,15.17a1.251,1.251,0,0,0,.373,1.494l.732.336a10.419,10.419,0,0,0,1.611.567c.757.2,1.392.781,1.392,1.369S14.1,20,14.9,20h3.839a1.335,1.335,0,0,0,1.44-1.2v-.122a2.3,2.3,0,0,1,1.279-1.742,5.152,5.152,0,0,0,3.01-4.508A4.542,4.542,0,0,0,23.443,9.463Zm-4.077,6.356c-.738.245-1.387.779-1.387,1.351a1.127,1.127,0,0,1-1.2,1.036,1.1,1.1,0,0,1-1.2-.955c0-.528-.647-.973-1.43-1.089a13.016,13.016,0,0,1-1.361-.275,1.324,1.324,0,0,1-.971-1.615l.012-.037a1.263,1.263,0,0,1,1.672-.672,9.693,9.693,0,0,0,2.709.4c1.405,0,2.35-.463,2.35-1.247,0-.764-.775-1.247-2.592-1.751-2.593-.723-4.362-1.73-4.362-3.681,0-1.444.978-2.626,2.717-3.241.732-.259,1.378-.767,1.378-1.295a1.091,1.091,0,0,1,1.188-.956c.655,0,1.188.4,1.188.885s.648.889,1.432,1c.269.039.519.086.754.138a1.252,1.252,0,0,1,.988,1.545,1.331,1.331,0,0,1-1.7.69A8.82,8.82,0,0,0,17.4,5.8c-1.575,0-2.084.583-2.084,1.146,0,.644.848,1.086,2.931,1.71,2.884.845,4.023,1.951,4.023,3.781C22.268,13.9,21.261,15.19,19.366,15.819Z"/></g></svg>