<svg xmlns="http://www.w3.org/2000/svg" viewBox="0 0 21.468 20"><defs><style>.a{fill:#fff;}</style></defs><g transform="translate(21.468 -1.928) rotate(90)"><path class="a" d="M7.335,30.281H4.57a1.142,1.142,0,0,1-1.142-1.142v-10A1.142,1.142,0,0,1,4.57,18H7.335a1.142,1.142,0,0,1,1.142,1.142v10A1.142,1.142,0,0,1,7.335,30.281Z" transform="translate(-0.929 -11.145)"/><path class="a" d="M25.835,19.136H23.07a1.142,1.142,0,0,1-1.142-1.142V1.142A1.142,1.142,0,0,1,23.07,0h2.764a1.142,1.142,0,0,1,1.142,1.142V17.993A1.142,1.142,0,0,1,25.835,19.136Z" transform="translate(-12.384)"/><path class="a" d="M44.5,25.328H41.737A1.142,1.142,0,0,1,40.6,24.185V11.142A1.142,1.142,0,0,1,41.737,10H44.5a1.142,1.142,0,0,1,1.142,1.142V24.185A1.142,1.142,0,0,1,44.5,25.328Z" transform="translate(-23.942 -6.192)"/><g transform="translate(1.928 20.326)"><path class="a" d="M21.356,54.516H2.5a.571.571,0,1,1,0-1.142H21.357a.571.571,0,1,1,0,1.142Z" transform="translate(-1.928 -53.374)"/></g></g></svg>