<svg xmlns="http://www.w3.org/2000/svg" viewBox="0 0 20 20"><defs><style>.a{fill:#fff;}</style></defs><path class="a" d="M18.238,7.439H14.322A1.762,1.762,0,0,1,12.56,5.678V1.762A1.762,1.762,0,0,0,10.8,0H9.2A1.762,1.762,0,0,0,7.44,1.762V5.678A1.762,1.762,0,0,1,5.678,7.439H1.762A1.762,1.762,0,0,0,0,9.2v1.6A1.762,1.762,0,0,0,1.762,12.56H5.678A1.762,1.762,0,0,1,7.44,14.322v3.916A1.762,1.762,0,0,0,9.2,20h1.6a1.761,1.761,0,0,0,1.761-1.762V14.322a1.762,1.762,0,0,1,1.762-1.762h3.916A1.762,1.762,0,0,0,20,10.8V9.2A1.76,1.76,0,0,0,18.238,7.439Z"/></svg>