<svg xmlns="http://www.w3.org/2000/svg" viewBox="0 0 21.961 20"><defs><style>.a{fill:#fff;}</style></defs><g transform="translate(0 -2.465)"><g transform="translate(6.24 11.999)"><path class="a" d="M17.075,27.789c-.006,0-.288.132-.63.295s-.675.041-.744-.274.262-.748.739-.969a4.416,4.416,0,0,1,1.489-.4c.345,0,.624.534.624,1.193V31.74c0,.659-.329,1.193-.734,1.193s-.734-.534-.734-1.193V28.982C17.084,28.323,17.08,27.789,17.075,27.789Z" transform="translate(-15.692 -26.44)"/><path class="a" d="M31.605,27.692h-.131c-.659,0-1.224.223-1.263.5s.023.486.14.482c.065,0,.133,0,.21,0a2.949,2.949,0,0,1,1.708.47,1.849,1.849,0,0,1,.789,1.629c0,1.209-1.038,2.277-2.787,2.277a5.012,5.012,0,0,1-.925-.085c-.505-.1-.82-.539-.743-.853s.446-.422.852-.335a3.547,3.547,0,0,0,.746.085c.629,0,1.3-.3,1.3-.989,0-.67-.529-1.08-1.828-1.08-.164,0-.306,0-.436.013-.24.016-.369-.483-.288-1.137l.128-1.038a1.383,1.383,0,0,1,1.339-1.184H31.6c.659,0,1.193.28,1.193.624S32.264,27.692,31.605,27.692Z" transform="translate(-23.461 -26.443)"/></g><path class="a" d="M19.607,5.724a1.177,1.177,0,0,1-1.16-1.193V3.658a1.16,1.16,0,1,0-2.32,0v.873a1.193,1.193,0,0,1-1.193,1.193H6.871A1.193,1.193,0,0,1,5.678,4.531V3.658a1.16,1.16,0,1,0-2.32,0v.873A1.142,1.142,0,0,1,2.276,5.724H1.193A1.193,1.193,0,0,0,0,6.917V21.272a1.193,1.193,0,0,0,1.193,1.193H20.768a1.193,1.193,0,0,0,1.193-1.193V6.917a1.193,1.193,0,0,0-1.193-1.193Zm-.416.981a.48.48,0,1,1-.48.48A.48.48,0,0,1,19.192,6.7Zm0,1.359a.48.48,0,1,1-.48.48A.48.48,0,0,1,19.192,8.064ZM17.767,6.7a.48.48,0,1,1-.48.48A.479.479,0,0,1,17.767,6.7Zm0,1.359a.48.48,0,1,1-.48.48A.479.479,0,0,1,17.767,8.064ZM16.341,6.7a.48.48,0,1,1-.48.48A.48.48,0,0,1,16.341,6.7Zm0,1.359a.48.48,0,1,1-.48.48A.48.48,0,0,1,16.341,8.064Zm3.8,11.423a1.081,1.081,0,0,1-1.082,1.082H2.9a1.081,1.081,0,0,1-1.081-1.082v-8.4A1.081,1.081,0,0,1,2.9,10H19.062a1.081,1.081,0,0,1,1.081,1.081v8.4Z" transform="translate(0)"/></g></svg>