<svg xmlns="http://www.w3.org/2000/svg" viewBox="0 0 20.823 20"><defs><style>.a{fill:#fff;}</style></defs><g transform="translate(0 -0.98)"><path class="a" d="M9.059,33.181l-4.6,4.531c-.577.568-1.29.784-1.594.481s-.086-1.014.487-1.586L7.9,32.062c.573-.573,1.3-.785,1.619-.473S9.636,32.612,9.059,33.181Z" transform="translate(-1.586 -17.678)"/><path class="a" d="M37.274,2.392A2.088,2.088,0,0,0,35.785,1a2.946,2.946,0,0,0-2.231.868L29.165,6.256c-.593.594-.882,1.268-.643,1.506s.4.452.357.482a.633.633,0,0,0-.068.059.787.787,0,0,0,.01,1.129.818.818,0,0,0,1.143,0,.691.691,0,0,0,.055-.061c.029-.036.252.135.5.385s.933-.029,1.527-.622l4.486-4.487A2.628,2.628,0,0,0,37.274,2.392Z" transform="translate(-16.502)"/><path class="a" d="M18.992,18.263,10.848,10.2a7.512,7.512,0,0,1-1.482-2.3L8.459,5.442A3.233,3.233,0,0,0,6.637,3.7L4.015,2.876c-.737-.233-.89.019-.34.564L6.629,6.362a1.4,1.4,0,0,1,.01,1.982L5.611,9.383a1.4,1.4,0,0,1-1.982.011L.676,6.472c-.55-.544-.819-.384-.6.358l.77,2.612a3.02,3.02,0,0,0,1.724,1.793l2.625.888a7.183,7.183,0,0,1,2.323,1.435l8.145,8.066a1.4,1.4,0,0,0,1.982-.01L19,20.244A1.4,1.4,0,0,0,18.992,18.263Zm-3.688,1A1.259,1.259,0,1,1,16.563,18,1.259,1.259,0,0,1,15.3,19.261Z" transform="translate(0 -1.05)"/></g></svg>