<svg xmlns="http://www.w3.org/2000/svg" viewBox="0 0 18.312 20"><defs><style>.a{fill:#fff;}</style></defs><g transform="translate(-2.318 0)"><path class="a" d="M4.657,1.561a6.6,6.6,0,0,1,9.971,8.348,1.568,1.568,0,0,0,.082,1.729l.276.326c.389.461.642.887.908.663s.8-.033,1.186.428l3.292,3.893a1.093,1.093,0,0,1-.129,1.54L18.76,19.742a1.093,1.093,0,0,1-1.54-.129L13.928,15.72c-.39-.461-.49-1.016-.225-1.241s-.114-.545-.5-1.005l-.276-.326a1.569,1.569,0,0,0-1.692-.368A6.6,6.6,0,0,1,4.657,1.561Zm7.97,1.906a4.856,4.856,0,1,0-.572,6.843A4.855,4.855,0,0,0,12.627,3.467Z" transform="translate(0 0)"/></g></svg>