<svg xmlns="http://www.w3.org/2000/svg" viewBox="0 0 60.937 25"><g transform="translate(0 -0.2)"><path d="M38.766.7H35.232L31.4,13.088l11.31.149ZM37.018,5.871,38.8,12.642H35.232Z" transform="translate(-19.718 -0.314)"/><path d="M3.832.7H0V12.94l3.832.037Z" transform="translate(0 -0.314)"/><path d="M10.6,40.662H3.832v-.707c-1.376.074-2.641.149-3.832.26v3.646H13.653l1-3.906H19.9l1,3.906H25L23.512,39.1c-4.464.149-8.743.3-12.612.484Z" transform="translate(0 -24.428)"/><path d="M119.769.7H115.9V13.46l3.869.074Z" transform="translate(-72.782 -0.314)"/><path d="M100.747,39.249a2.25,2.25,0,0,1-1.9.67,2.153,2.153,0,0,1-1.9-.707,3.072,3.072,0,0,1-.484-1.525c-1.3.037-2.567.074-3.869.074a5.9,5.9,0,0,0,1.563,3.72,7.629,7.629,0,0,0,9.3.037,5.83,5.83,0,0,0,1.6-4.018c-1.265.037-2.567.037-3.869.074A2.645,2.645,0,0,1,100.747,39.249Z" transform="translate(-58.151 -23.424)"/><path d="M66.082,3.9h4.539v9.449l3.869.074V.7H57.6V3.9h4.613v9.338l3.869.074Z" transform="translate(-36.171 -0.314)"/><path d="M70,43.548h3.869V38.6L70,38.712Z" transform="translate(-43.958 -24.114)"/><path d="M137.257,36.912a2.121,2.121,0,0,1,.037.484q0,2.121-2.009,2.121a2.622,2.622,0,0,1-2.083-.744,3.293,3.293,0,0,1-.632-1.823c-1.265.037-2.567.037-3.869.074a6.285,6.285,0,0,0,.818,2.679A5.576,5.576,0,0,0,131.9,41.86a7.143,7.143,0,0,0,3.348.744,6.344,6.344,0,0,0,4.315-1.414,4.962,4.962,0,0,0,1.6-3.869,2.288,2.288,0,0,0-.037-.521C139.861,36.874,138.559,36.912,137.257,36.912Z" transform="translate(-80.821 -22.984)"/><path d="M140.526,10.691a9.7,9.7,0,0,0-4.055-2.455,7.133,7.133,0,0,1-2.232-1.3,1.984,1.984,0,0,1-.632-1.414,2.265,2.265,0,0,1,.558-1.6,1.994,1.994,0,0,1,1.563-.6,1.942,1.942,0,0,1,1.637.707,3.267,3.267,0,0,1,.558,2.046h3.832a6.276,6.276,0,0,0-.744-3.051A4.984,4.984,0,0,0,138.889.944,6.681,6.681,0,0,0,135.764.2a6.542,6.542,0,0,0-4.353,1.451A4.8,4.8,0,0,0,129.7,5.52a5.031,5.031,0,0,0,1.265,3.46,9.955,9.955,0,0,0,4.129,2.53,6.709,6.709,0,0,1,2.158,1.228,2.3,2.3,0,0,1,.409.632l3.981.037A4.829,4.829,0,0,0,140.526,10.691Z" transform="translate(-81.449)"/><g transform="translate(25.93 20.099)"><path d="M72.379,56.379h-1.86l-.409,2.344H69.7l.856-5.022h2.53l-.074.372H70.928l-.335,1.935h1.86Z" transform="translate(-69.7 -53.696)"/><path d="M81.372,58.722H81l.856-5.022h.372Z" transform="translate(-76.796 -53.696)"/><path d="M90.288,58.722h-.372l-1.562-4.278-.744,4.278H87.2l.856-5.022h.372l1.563,4.278.744-4.278h.372Z" transform="translate(-80.69 -53.696)"/><path d="M102.4,57.309h-1.823l-.67,1.414H99.5l2.418-5.022h.372l.67,5.022h-.409Zm-1.637-.372h1.6l-.335-2.679Z" transform="translate(-88.414 -53.696)"/><path d="M115.788,58.722h-.372l-1.562-4.278-.744,4.278H112.7l.856-5.022h.372l1.563,4.278.744-4.278h.372Z" transform="translate(-96.703 -53.696)"/><path d="M129.576,57.153a2.123,2.123,0,0,1-.6,1.228,1.676,1.676,0,0,1-1.153.409,1.147,1.147,0,0,1-.856-.372,1.636,1.636,0,0,1-.372-1v-.186a1.811,1.811,0,0,1,.037-.446l.186-1.079a2.749,2.749,0,0,1,.632-1.488,1.555,1.555,0,0,1,1.228-.521,1.151,1.151,0,0,1,.967.446,1.888,1.888,0,0,1,.3,1.19h-.409a1.718,1.718,0,0,0-.186-.967.817.817,0,0,0-.67-.3,1.1,1.1,0,0,0-.93.409,2.653,2.653,0,0,0-.521,1.265l-.186,1.153-.037.3a1.951,1.951,0,0,0,.074.67,1.068,1.068,0,0,0,.3.484.806.806,0,0,0,.521.186,1.142,1.142,0,0,0,.818-.26,2.476,2.476,0,0,0,.521-1Z" transform="translate(-105.432 -53.689)"/><path d="M139.072,58.722H138.7l.856-5.022h.372Z" transform="translate(-113.03 -53.696)"/><path d="M146.8,57.309h-1.823l-.67,1.414H143.9l2.418-5.022h.372l.67,5.022h-.409Zm-1.637-.372h1.6l-.335-2.679Z" transform="translate(-116.296 -53.696)"/><path d="M157.646,58.35h2.009l-.074.372H157.2l.856-5.022h.409Z" transform="translate(-124.648 -53.696)"/></g></g></svg>