<?xml version="1.0" encoding="utf-8"?>
<!-- Generator: Adobe Illustrator 22.1.0, SVG Export Plug-In . SVG Version: 6.00 Build 0)  -->
<svg version="1.1" id="Layer_1" xmlns="http://www.w3.org/2000/svg" xmlns:xlink="http://www.w3.org/1999/xlink" x="0px" y="0px"
	 viewBox="0 0 60.9 25" style="enable-background:new 0 0 60.9 25;" xml:space="preserve">
<style type="text/css">
	.st0{fill:#FFFFFF;}
</style>
<g transform="translate(0 -0.2)">
	<path class="st0" d="M19,0.4h-3.5l-3.8,12.4L23,12.9L19,0.4z M17.3,5.6l1.8,6.8h-3.6L17.3,5.6z"/>
	<path class="st0" d="M3.8,0.4H0v12.2l3.8,0V0.4z"/>
	<path class="st0" d="M10.6,16.2H3.8v-0.7c-1.4,0.1-2.6,0.1-3.8,0.3v3.6h13.7l1-3.9h5.2l1,3.9H25l-1.5-4.8
		c-4.5,0.1-8.7,0.3-12.6,0.5L10.6,16.2z"/>
	<path class="st0" d="M47,0.4h-3.9v12.8l3.9,0.1L47,0.4z"/>
	<path class="st0" d="M42.6,15.8c-0.5,0.5-1.2,0.8-1.9,0.7c-0.7,0.1-1.4-0.2-1.9-0.7c-0.3-0.5-0.5-1-0.5-1.5c-1.3,0-2.6,0.1-3.9,0.1
		c0.1,1.4,0.6,2.7,1.6,3.7c2.7,2.1,6.5,2.1,9.3,0c1-1.1,1.6-2.5,1.6-4c-1.3,0-2.6,0-3.9,0.1C43.1,14.7,42.9,15.3,42.6,15.8z"/>
	<path class="st0" d="M29.9,3.6h4.5V13l3.9,0.1V0.4H21.4v3.2H26v9.3l3.9,0.1V3.6z"/>
	<path class="st0" d="M26,19.4h3.9v-4.9L26,14.6V19.4z"/>
	<path class="st0" d="M56.4,13.9c0,0.2,0,0.3,0,0.5c0,1.4-0.7,2.1-2,2.1c-0.8,0.1-1.5-0.2-2.1-0.7c-0.4-0.5-0.6-1.2-0.6-1.8
		c-1.3,0-2.6,0-3.9,0.1c0.1,0.9,0.3,1.9,0.8,2.7c0.6,0.9,1.4,1.7,2.4,2.2c1,0.5,2.2,0.8,3.3,0.7c1.6,0.1,3.1-0.4,4.3-1.4
		c1.1-1,1.7-2.4,1.6-3.9c0-0.2,0-0.3,0-0.5C59,13.9,57.7,13.9,56.4,13.9z"/>
	<path class="st0" d="M59.1,10.7c-1.1-1.1-2.5-2-4.1-2.5c-0.8-0.3-1.6-0.7-2.2-1.3c-0.4-0.4-0.6-0.9-0.6-1.4c0-0.6,0.2-1.2,0.6-1.6
		c0.4-0.4,1-0.6,1.6-0.6c0.6,0,1.2,0.2,1.6,0.7c0.4,0.6,0.6,1.3,0.6,2h3.8C60.3,5,60.1,4,59.6,3c-0.5-0.9-1.2-1.6-2.1-2.1
		c-1-0.5-2-0.8-3.1-0.7c-1.6-0.1-3.1,0.5-4.4,1.5c-1.1,1-1.8,2.4-1.7,3.9c0,1.3,0.4,2.5,1.3,3.5c1.1,1.2,2.6,2,4.1,2.5
		c0.8,0.3,1.5,0.7,2.2,1.2c0.2,0.2,0.3,0.4,0.4,0.6l4,0C60.1,12.4,59.7,11.5,59.1,10.7z"/>
	<g transform="translate(25.93 20.099)">
		<path class="st0" d="M2.7,2.7H0.8L0.4,5H0l0.9-5h2.5L3.3,0.4H1.2L0.9,2.3h1.9L2.7,2.7z"/>
		<path class="st0" d="M4.6,5H4.2l0.9-5h0.4L4.6,5z"/>
		<path class="st0" d="M9.6,5H9.2L7.7,0.7L6.9,5H6.5l0.9-5h0.4l1.6,4.3L10,0h0.4L9.6,5z"/>
		<path class="st0" d="M14,3.6h-1.8L11.5,5h-0.4l2.4-5h0.4l0.7,5h-0.4L14,3.6z M12.3,3.2h1.6l-0.3-2.7L12.3,3.2z"/>
		<path class="st0" d="M19.1,5h-0.4l-1.6-4.3L16.4,5H16l0.9-5h0.4l1.6,4.3L19.5,0h0.4L19.1,5z"/>
		<path class="st0" d="M24.1,3.5c-0.1,0.5-0.3,0.9-0.6,1.2c-0.3,0.3-0.7,0.4-1.2,0.4c-0.3,0-0.6-0.1-0.9-0.4c-0.2-0.3-0.4-0.6-0.4-1
			V3.5c0-0.1,0-0.3,0-0.4L21.4,2C21.4,1.5,21.7,1,22,0.5C22.3,0.2,22.8,0,23.2,0c0.4,0,0.7,0.1,1,0.4c0.2,0.4,0.3,0.8,0.3,1.2h-0.4
			c0-0.3,0-0.7-0.2-1c-0.2-0.2-0.4-0.3-0.7-0.3c-0.4,0-0.7,0.1-0.9,0.4c-0.3,0.4-0.5,0.8-0.5,1.3l-0.2,1.2l0,0.3
			c0,0.2,0,0.5,0.1,0.7c0.1,0.2,0.2,0.4,0.3,0.5c0.1,0.1,0.3,0.2,0.5,0.2c0.3,0,0.6-0.1,0.8-0.3c0.2-0.3,0.4-0.6,0.5-1L24.1,3.5z"/>
		<path class="st0" d="M26,5h-0.4l0.9-5h0.4L26,5z"/>
		<path class="st0" d="M30.5,3.6h-1.8L28,5h-0.4L30,0h0.4l0.7,5h-0.4L30.5,3.6z M28.9,3.2h1.6l-0.3-2.7L28.9,3.2z"/>
		<path class="st0" d="M33,4.7h2L34.9,5h-2.4l0.9-5h0.4L33,4.7z"/>
	</g>
</g>
</svg>
